<svg id="Layer_1" width="112" height="29"  data-name="Layer 1" xmlns="http://www.w3.org/2000/svg" viewBox="0 0 791.06 184.29"><path id="path0" d="M461,239.18c-7.52.35-10,1.37-15.24,6.38-8.32,7.9-55.13,54.75-55.94,56-3.72,5.67-3.57,6.12,9.75,28.67l4.59,7.81c2.65,4.52,5.56,9.45,9.94,16.81,3.24,5.46,10.77,18.16,13,21.9,2,3.46,8.92,15.06,11.86,20,1.24,2.08,3.91,6.61,5.94,10.06,6.7,11.41,8.71,13.6,14.15,15.42l2.21.74,12.27.23c13.53.24,19.21.14,21.16-.39,4.18-1.14,6.87-3.72,8.53-8.19l.67-1.78v-81.2c0-89.07.09-83.2-1.46-86.28a10.84,10.84,0,0,0-8.09-5.85c-2.19-.42-26.16-.65-33.32-.32" transform="translate(-318.47 -239.02)" style="fill:#0052cc;fill-rule:evenodd"/><path d="M328.49,239.22c-5.78.44-8.63,2.68-9.65,7.6-.62,3-.4,70.61.23,72.24,1.82,4.72,7.37,5.47,12.61,1.69,1.84-1.32,66.48-66,67.53-67.56,3.64-5.43,1.55-11.92-4.4-13.66-1.53-.44-60.92-.72-66.32-.31" transform="translate(-318.47 -239.02)" style="fill:#5243a9;fill-rule:evenodd"/><path id="path2" d="M359.45,330.81c-2.55,1-4.24,2.57-21,19.18-17,16.84-18.53,18.53-19.48,21l-.52,1.38v21.66c0,19.89,0,21.77.41,23A9.47,9.47,0,0,0,325,422.8l1.4.51,40.76,0c46.39,0,42.37.16,45.2-2.06,4.93-3.87,4.35-8.08-2.66-19.43l-2.1-3.57c-4.89-8.35-22.4-37.89-23.5-39.64-.24-.4-.52-.86-.6-1s-1.5-2.59-3.14-5.36-3.33-5.63-3.74-6.35c-.95-1.64-1.21-2.09-3.83-6.51-3.23-5.46-4.58-7.07-6.95-8.31a10.33,10.33,0,0,0-6.35-.22" transform="translate(-318.47 -239.02)" style="fill:#ffc312;fill-rule:evenodd"/><path d="M648.15,407.63l-56.81-70.41h-.43v70.41H554.62V254.7h36.29v62.21h.65l54.65-62.21h46.22l-65.88,70.42,69.77,82.51Z" transform="translate(-318.47 -239.02)" style="fill:#0052cc"/><path d="M708.2,407.63V254.7H811V286H743.84v28.73h63.5v29.59h-63.5V376.1H814.9v31.53Z" transform="translate(-318.47 -239.02)" style="fill:#0052cc"/><path d="M839.31,407.63V254.7H942.12V286H875v28.73h63.5v29.59H875V376.1H946v31.53Z" transform="translate(-318.47 -239.02)" style="fill:#0052cc"/><path d="M1067.62,407.63l-61.56-100h-.65l.87,100H970.42V254.7h42.12l61.34,99.8h.65l-.86-99.8h35.85V407.63Z" transform="translate(-318.47 -239.02)" style="fill:#0052cc"/></svg>