<svg width="56" height="56" viewBox="0 0 56 56" fill="none" xmlns="http://www.w3.org/2000/svg">
<rect width="56" height="56" fill="white"/>
<path d="M43.7487 41.5733C26.4134 49.8235 15.6549 42.9208 8.76799 38.7283C8.34184 38.464 7.61752 38.79 8.24597 39.5119C10.5403 42.2939 18.0594 48.9992 27.874 48.9992C37.6954 48.9992 43.5382 43.6402 44.2691 42.7053C44.9951 41.7784 44.4823 41.2671 43.7486 41.5733H43.7487ZM48.6173 38.8846C48.1518 38.2784 45.7866 38.1654 44.2981 38.3482C42.8073 38.5258 40.5696 39.4369 40.7642 39.984C40.864 40.1889 41.0678 40.097 42.0919 40.0049C43.1188 39.9025 45.9957 39.5394 46.5951 40.323C47.1974 41.1121 45.6776 44.8709 45.4 45.4771C45.1318 46.0833 45.5025 46.2396 46.0062 45.8359C46.503 45.4323 47.4025 44.3871 48.006 42.908C48.6055 41.4208 48.9712 39.3462 48.6173 38.8846Z" fill="#FF9900"/>
<path fill-rule="evenodd" clip-rule="evenodd" d="M32.0952 24.7401C32.0952 26.9048 32.1499 28.7101 31.0557 30.6325C30.1726 32.1956 28.7737 33.1568 27.2108 33.1568C25.0772 33.1568 23.8346 31.5313 23.8346 29.1321C23.8346 24.3962 28.0781 23.5366 32.0952 23.5366V24.7401ZM37.6985 38.2835C37.3311 38.6117 36.7997 38.6352 36.3856 38.4163C34.5412 36.8847 34.2129 36.1735 33.1971 34.712C30.1492 37.8225 27.9922 38.7524 24.0379 38.7524C19.3645 38.7524 15.7227 35.8686 15.7227 30.0933C15.7227 25.5842 18.1689 22.5128 21.6463 21.0124C24.663 19.6837 28.8754 19.4493 32.0952 19.0821V18.3631C32.0952 17.0423 32.1966 15.4793 31.4231 14.3384C30.7431 13.3146 29.4458 12.8926 28.3047 12.8926C26.187 12.8926 24.2957 13.9788 23.8346 16.2295C23.7407 16.7298 23.3735 17.2222 22.8734 17.2455L17.481 16.6673C17.0278 16.5655 16.5277 16.1984 16.6527 15.5027C17.8953 8.96951 23.7954 7 29.0783 7C31.7823 7 35.3147 7.71905 37.4482 9.76664C40.1523 12.2908 39.8943 15.659 39.8943 19.3243V27.9833C39.8943 30.5857 40.9728 31.7266 41.9887 33.1334C42.3481 33.6336 42.4264 34.2355 41.973 34.6104C40.8399 35.556 38.8236 37.3144 37.7139 38.2992L37.6983 38.2835" fill="black"/>
<path d="M43.7487 41.5733C26.4134 49.8235 15.6549 42.9208 8.76799 38.7283C8.34184 38.464 7.61752 38.79 8.24597 39.5119C10.5403 42.2939 18.0594 48.9992 27.874 48.9992C37.6954 48.9992 43.5382 43.6402 44.2691 42.7053C44.9951 41.7784 44.4823 41.2671 43.7486 41.5733H43.7487ZM48.6173 38.8846C48.1518 38.2784 45.7866 38.1654 44.2981 38.3482C42.8073 38.5258 40.5696 39.4369 40.7642 39.984C40.864 40.1889 41.0678 40.097 42.0919 40.0049C43.1188 39.9025 45.9957 39.5394 46.5951 40.323C47.1974 41.1121 45.6776 44.8709 45.4 45.4771C45.1318 46.0833 45.5025 46.2396 46.0062 45.8359C46.503 45.4323 47.4025 44.3871 48.006 42.908C48.6055 41.4208 48.9712 39.3462 48.6173 38.8846Z" fill="#FF9900"/>
<path fill-rule="evenodd" clip-rule="evenodd" d="M32.0952 24.7401C32.0952 26.9048 32.1499 28.7101 31.0557 30.6325C30.1726 32.1956 28.7737 33.1568 27.2108 33.1568C25.0772 33.1568 23.8346 31.5313 23.8346 29.1321C23.8346 24.3962 28.0781 23.5366 32.0952 23.5366V24.7401ZM37.6985 38.2835C37.3311 38.6117 36.7997 38.6352 36.3856 38.4163C34.5412 36.8847 34.2129 36.1735 33.1971 34.712C30.1492 37.8225 27.9922 38.7524 24.0379 38.7524C19.3645 38.7524 15.7227 35.8686 15.7227 30.0933C15.7227 25.5842 18.1689 22.5128 21.6463 21.0124C24.663 19.6837 28.8754 19.4493 32.0952 19.0821V18.3631C32.0952 17.0423 32.1966 15.4793 31.4231 14.3384C30.7431 13.3146 29.4458 12.8926 28.3047 12.8926C26.187 12.8926 24.2957 13.9788 23.8346 16.2295C23.7407 16.7298 23.3735 17.2222 22.8734 17.2455L17.481 16.6673C17.0278 16.5655 16.5277 16.1984 16.6527 15.5027C17.8953 8.96951 23.7954 7 29.0783 7C31.7823 7 35.3147 7.71905 37.4482 9.76664C40.1523 12.2908 39.8943 15.659 39.8943 19.3243V27.9833C39.8943 30.5857 40.9728 31.7266 41.9887 33.1334C42.3481 33.6336 42.4264 34.2355 41.973 34.6104C40.8399 35.556 38.8236 37.3144 37.7139 38.2992L37.6983 38.2835" fill="black"/>
</svg>
