<svg width="56" height="56" viewBox="0 0 56 56" fill="none" xmlns="http://www.w3.org/2000/svg">
<rect width="56" height="56" fill="white"/>
<g clip-path="url(#clip0_6326_29044)">
<path d="M7 28C7 24.192 7.93803 20.678 9.814 17.458C11.69 14.238 14.238 11.69 17.458 9.814C20.678 7.93799 24.192 7 28 7C31.808 7 35.322 7.93799 38.542 9.814C41.762 11.69 44.31 14.238 46.186 17.458C48.062 20.678 49 24.192 49 28C49 31.808 48.062 35.322 46.186 38.542C44.31 41.762 41.762 44.31 38.542 46.186C35.322 48.062 31.808 49 28 49C24.192 49 20.678 48.062 17.458 46.186C14.238 44.31 11.69 41.762 9.814 38.542C7.93803 35.322 7 31.808 7 28ZM10.486 28C10.486 32.368 11.956 36.218 14.896 39.55C16.24 36.918 18.368 34.412 21.28 32.032C24.192 29.652 27.034 28.154 29.806 27.538C29.386 26.558 28.98 25.676 28.588 24.892C23.772 26.432 18.564 27.202 12.964 27.202C11.872 27.202 11.06 27.188 10.528 27.16C10.528 27.272 10.521 27.412 10.507 27.58C10.493 27.748 10.486 27.888 10.486 28ZM11.032 23.674C11.648 23.73 12.558 23.758 13.762 23.758C18.438 23.758 22.876 23.128 27.076 21.868C24.948 18.088 22.61 14.938 20.062 12.418C17.85 13.538 15.953 15.092 14.371 17.08C12.789 19.068 11.676 21.266 11.032 23.674ZM17.29 41.818C20.454 44.282 24.024 45.514 28 45.514C30.072 45.514 32.13 45.122 34.174 44.338C33.614 39.55 32.522 34.916 30.898 30.436C28.322 30.996 25.725 32.41 23.107 34.678C20.489 36.946 18.55 39.326 17.29 41.818ZM23.716 11.074C26.18 13.622 28.462 16.8 30.562 20.608C34.37 19.012 37.24 16.982 39.172 14.518C35.924 11.83 32.2 10.486 28 10.486C26.572 10.486 25.144 10.682 23.716 11.074ZM32.074 23.59C32.494 24.486 32.97 25.62 33.502 26.992C35.574 26.796 37.828 26.698 40.264 26.698C42 26.698 43.722 26.74 45.43 26.824C45.206 23.016 43.834 19.628 41.314 16.66C39.494 19.376 36.414 21.686 32.074 23.59ZM34.552 29.932C35.98 34.076 36.946 38.332 37.45 42.7C39.662 41.272 41.468 39.438 42.868 37.198C44.268 34.958 45.108 32.536 45.388 29.932C43.344 29.792 41.482 29.722 39.802 29.722C38.262 29.722 36.512 29.792 34.552 29.932Z" fill="#EA4C89"/>
</g>
<defs>
<clipPath id="clip0_6326_29044">
<rect width="42" height="42" fill="white" transform="translate(7 7)"/>
</clipPath>
</defs>
</svg>
