<svg width="56" height="56" viewBox="0 0 56 56" fill="none" xmlns="http://www.w3.org/2000/svg">
<rect width="56" height="56" fill="white"/>
<g clip-path="url(#clip0_6326_29023)">
<path d="M26.627 7.03278C26.5368 7.04098 26.2497 7.06969 25.9913 7.09019C20.0323 7.62744 14.4506 10.8428 10.9154 15.7847C8.94688 18.5324 7.68783 21.6493 7.21209 24.9508C7.04394 26.1032 7.02344 26.4436 7.02344 28.0061C7.02344 29.5687 7.04394 29.9091 7.21209 31.0615C8.35221 38.9398 13.9585 45.5591 21.5621 48.0116C22.9236 48.4504 24.359 48.7498 25.9913 48.9302C26.627 49 29.3748 49 30.0105 48.9302C32.8279 48.6186 35.2148 47.9214 37.5689 46.7197C37.9298 46.5352 37.9995 46.486 37.9503 46.4449C37.9175 46.4203 36.3796 44.3575 34.534 41.8639L31.1793 37.3322L26.9756 31.1107C24.6625 27.6903 22.7596 24.8933 22.7432 24.8933C22.7268 24.8892 22.7104 27.6534 22.7022 31.0287C22.6899 36.9385 22.6858 37.1763 22.612 37.3158C22.5053 37.5167 22.4233 37.5987 22.2511 37.689C22.1198 37.7546 22.005 37.7669 21.3857 37.7669H20.6762L20.4876 37.648C20.3645 37.57 20.2743 37.4675 20.2128 37.3486L20.1267 37.164L20.1349 28.9412L20.1472 20.7143L20.2743 20.5543C20.3399 20.4682 20.4794 20.3575 20.5778 20.3041C20.7459 20.2221 20.8115 20.2139 21.521 20.2139C22.3577 20.2139 22.4971 20.2467 22.7145 20.4846C22.776 20.5502 25.0521 23.9788 27.7753 28.1086C30.4985 32.2385 34.2223 37.8776 36.0515 40.6459L39.3734 45.678L39.5416 45.5673C41.0303 44.5994 42.6051 43.2214 43.8519 41.786C46.5053 38.7389 48.2155 35.0232 48.7897 31.0615C48.9578 29.9091 48.9783 29.5687 48.9783 28.0061C48.9783 26.4436 48.9578 26.1032 48.7897 24.9508C47.6495 17.0724 42.0433 10.4531 34.4397 8.00065C33.0986 7.56593 31.6714 7.26654 30.072 7.08609C29.6783 7.04508 26.9674 6.99997 26.627 7.03278ZM35.2148 19.7218C35.4117 19.8202 35.5716 20.0089 35.629 20.2057C35.6619 20.3123 35.6701 22.5926 35.6619 27.7313L35.6495 35.1052L34.3495 33.1121L33.0453 31.1189V25.7587C33.0453 22.2932 33.0617 20.3451 33.0863 20.2508C33.1519 20.0212 33.2955 19.8407 33.4923 19.7341C33.6605 19.6479 33.722 19.6397 34.3659 19.6397C34.9729 19.6397 35.0795 19.648 35.2148 19.7218Z" fill="black"/>
<path d="M39.1684 45.7687C39.0249 45.859 38.9798 45.9205 39.1069 45.8508C39.1971 45.7974 39.3448 45.6867 39.3202 45.6826C39.3079 45.6826 39.2381 45.7236 39.1684 45.7687ZM38.8854 45.9533C38.8116 46.0107 38.8116 46.0148 38.9019 45.9697C38.9511 45.9451 38.9921 45.9164 38.9921 45.9082C38.9921 45.8754 38.9716 45.8836 38.8854 45.9533ZM38.6804 46.0763C38.6066 46.1337 38.6066 46.1378 38.6968 46.0927C38.746 46.0681 38.787 46.0394 38.787 46.0312C38.787 45.9984 38.7665 46.0066 38.6804 46.0763ZM38.4753 46.1994C38.4015 46.2568 38.4015 46.2609 38.4917 46.2158C38.541 46.1912 38.582 46.1625 38.582 46.1543C38.582 46.1214 38.5615 46.1296 38.4753 46.1994ZM38.1636 46.3634C38.0078 46.4454 38.016 46.4782 38.1718 46.4003C38.2416 46.3634 38.2949 46.3265 38.2949 46.3183C38.2949 46.2896 38.2908 46.2937 38.1636 46.3634Z" fill="black"/>
</g>
<defs>
<clipPath id="clip0_6326_29023">
<rect width="42" height="42" fill="white" transform="translate(7 7)"/>
</clipPath>
</defs>
</svg>
