<svg width="56" height="56" viewBox="0 0 56 56" fill="none" xmlns="http://www.w3.org/2000/svg">
<rect width="56" height="56" fill="white"/>
<g clip-path="url(#clip0_6326_29032)">
<path d="M49.88 28.0049C49.88 25.098 46.2397 22.3432 40.6586 20.6349C41.9465 14.9464 41.3741 10.4207 38.8519 8.97173C38.2705 8.63185 37.5907 8.47086 36.8484 8.47086V10.4654C37.2598 10.4654 37.5907 10.5459 37.868 10.698C39.0844 11.3956 39.6121 14.052 39.2007 17.4687C39.1023 18.3094 38.9413 19.1949 38.7445 20.0983C36.9915 19.6689 35.0774 19.338 33.065 19.1233C31.8575 17.4687 30.6054 15.9661 29.3442 14.6513C32.26 11.9412 34.9969 10.4565 36.8573 10.4565V8.46191C34.3977 8.46191 31.1778 10.215 27.9221 13.256C24.6664 10.2329 21.4465 8.49769 18.9869 8.49769V10.4922C20.8383 10.4922 23.5842 11.968 26.5 14.6602C25.2478 15.975 23.9956 17.4687 22.8061 19.1233C20.7847 19.338 18.8706 19.6689 17.1176 20.1072C16.9119 19.2128 16.7598 18.3452 16.6525 17.5134C16.2321 14.0967 16.7509 11.4403 17.9583 10.7337C18.2267 10.5727 18.5755 10.5012 18.9869 10.5012V8.50663C18.2356 8.50663 17.5558 8.66763 16.9655 9.00751C14.4522 10.4565 13.8887 14.9733 15.1856 20.6438C9.62238 22.3611 6 25.107 6 28.0049C6 30.9117 9.64027 33.6665 15.2214 35.3749C13.9335 41.0633 14.5059 45.5891 17.0281 47.038C17.6095 47.3779 18.2893 47.5389 19.0406 47.5389C21.5002 47.5389 24.7201 45.7858 27.9758 42.7448C31.2314 45.768 34.4513 47.5031 36.911 47.5031C37.6623 47.5031 38.3421 47.3421 38.9324 47.0023C41.4457 45.5533 42.0091 41.0365 40.7122 35.3659C46.2576 33.6576 49.88 30.9028 49.88 28.0049ZM38.2347 22.0391C37.9038 23.1929 37.4924 24.3825 37.0273 25.5721C36.6605 24.8565 36.2759 24.141 35.8556 23.4255C35.4441 22.7099 35.0059 22.0123 34.5676 21.3325C35.8377 21.5204 37.063 21.7529 38.2347 22.0391ZM34.1383 31.5647C33.4407 32.7721 32.7251 33.917 31.9828 34.9813C30.6501 35.0976 29.2995 35.1602 27.94 35.1602C26.5894 35.1602 25.2389 35.0976 23.9151 34.9903C23.1728 33.9259 22.4483 32.79 21.7506 31.5915C21.0709 30.4198 20.4537 29.2302 19.8903 28.0317C20.4448 26.8332 21.0709 25.6347 21.7417 24.463C22.4394 23.2555 23.1549 22.1107 23.8972 21.0463C25.2299 20.9301 26.5805 20.8674 27.94 20.8674C29.2906 20.8674 30.6411 20.9301 31.9649 21.0374C32.7072 22.1017 33.4317 23.2376 34.1294 24.4362C34.8091 25.6078 35.4263 26.7974 35.9897 27.9959C35.4263 29.1945 34.8091 30.393 34.1383 31.5647ZM37.0273 30.4019C37.5102 31.6004 37.9217 32.7989 38.2616 33.9617C37.0899 34.2479 35.8556 34.4894 34.5766 34.6772C35.0148 33.9885 35.4531 33.2819 35.8645 32.5575C36.276 31.8419 36.6605 31.1174 37.0273 30.4019ZM27.9579 39.9453C27.1261 39.0867 26.2943 38.1297 25.4714 37.0832C26.2764 37.119 27.0993 37.1458 27.9311 37.1458C28.7718 37.1458 29.6036 37.1279 30.4175 37.0832C29.6126 38.1297 28.7808 39.0867 27.9579 39.9453ZM21.3034 34.6772C20.0334 34.4894 18.808 34.2568 17.6363 33.9706C17.9673 32.8168 18.3787 31.6273 18.8438 30.4377C19.2105 31.1532 19.5951 31.8688 20.0155 32.5843C20.4359 33.2998 20.8652 33.9975 21.3034 34.6772ZM27.9132 16.0644C28.745 16.9231 29.5768 17.8801 30.3996 18.9266C29.5947 18.8908 28.7718 18.864 27.94 18.864C27.0993 18.864 26.2674 18.8818 25.4535 18.9266C26.2585 17.8801 27.0903 16.9231 27.9132 16.0644ZM21.2945 21.3325C20.8562 22.0212 20.418 22.7278 20.0065 23.4523C19.5951 24.1678 19.2105 24.8834 18.8438 25.5989C18.3608 24.4004 17.9494 23.2019 17.6095 22.0391C18.7812 21.7619 20.0155 21.5204 21.2945 21.3325ZM13.2 32.5306C10.0338 31.1801 7.9856 29.4091 7.9856 28.0049C7.9856 26.6006 10.0338 24.8208 13.2 23.4791C13.9692 23.1482 14.81 22.8531 15.6776 22.5758C16.1874 24.3288 16.8582 26.1534 17.69 28.0228C16.8671 29.8832 16.2053 31.6988 15.7044 33.4429C14.8189 33.1657 13.9782 32.8616 13.2 32.5306ZM18.012 45.3118C16.7956 44.6142 16.2679 41.9578 16.6793 38.5411C16.7777 37.7003 16.9387 36.8149 17.1355 35.9115C18.8885 36.3408 20.8026 36.6718 22.815 36.8864C24.0225 38.5411 25.2746 40.0437 26.5358 41.3585C23.62 44.0686 20.8831 45.5533 19.0227 45.5533C18.6202 45.5444 18.2803 45.4639 18.012 45.3118ZM39.2275 38.4964C39.6479 41.913 39.1291 44.5694 37.9217 45.276C37.6533 45.437 37.3045 45.5086 36.8931 45.5086C35.0417 45.5086 32.2958 44.0328 29.38 41.3406C30.6322 40.0258 31.8844 38.5321 33.0739 36.8775C35.0953 36.6628 37.0094 36.3319 38.7624 35.8936C38.9681 36.797 39.1291 37.6646 39.2275 38.4964ZM42.671 32.5306C41.9018 32.8616 41.0611 33.1567 40.1935 33.434C39.6837 31.6809 39.0129 29.8563 38.1811 27.987C39.0039 26.1266 39.6658 24.3109 40.1667 22.5668C41.0521 22.8441 41.8929 23.1482 42.68 23.4791C45.8462 24.8297 47.8944 26.6006 47.8944 28.0049C47.8855 29.4091 45.8372 31.189 42.671 32.5306Z" fill="#61DAFB"/>
<path d="M27.9312 32.0919C30.1887 32.0919 32.0187 30.2619 32.0187 28.0045C32.0187 25.747 30.1887 23.917 27.9312 23.917C25.6738 23.917 23.8438 25.747 23.8438 28.0045C23.8438 30.2619 25.6738 32.0919 27.9312 32.0919Z" fill="#61DAFB"/>
</g>
<defs>
<clipPath id="clip0_6326_29032">
<rect width="43.88" height="50" fill="white" transform="translate(6 3)"/>
</clipPath>
</defs>
</svg>
